<svg data-v-423bf9ae="" xmlns="http://www.w3.org/2000/svg" viewBox="0 0 570 90" class="iconLeftSlogan"><!----><!----><!----><g data-v-423bf9ae="" id="53d132ca-402c-490b-8bf9-2d3f71cd16fc" fill="#213210" transform="matrix(5.353160458607779,0,0,5.353160458607779,152.52939775593168,-26.570794946696907)"><path d="M4.35 12.89L4.35 12.89L4.35 12.89Q3.50 12.54 2.97 13.34L2.97 13.34L2.97 13.34Q2.24 14.49 1.86 14.29L1.86 14.29L1.86 14.29Q1.67 14.21 1.57 13.85L1.57 13.85L1.57 13.85Q1.48 13.48 1.47 12.94L1.47 12.94L1.47 12.94Q1.46 12.40 1.52 11.76L1.52 11.76L1.52 11.76Q1.58 11.12 1.71 10.49L1.71 10.49L1.71 10.49Q1.83 9.90 2.04 9.24L2.04 9.24L2.04 9.24Q2.25 8.58 2.49 8.04L2.49 8.04L2.49 8.04Q2.73 7.49 2.95 7.15L2.95 7.15L2.95 7.15Q3.18 6.82 3.35 6.89L3.35 6.89L3.35 6.89Q3.51 6.97 3.55 7.27L3.55 7.27L3.55 7.27Q3.58 7.57 3.58 7.94L3.58 7.94L3.58 7.94Q3.58 8.05 3.59 8.16L3.59 8.16L3.59 8.16Q3.60 8.27 3.61 8.39L3.61 8.39L3.61 8.39Q3.70 8.97 3.95 9.32L3.95 9.32L3.95 9.32Q4.20 9.66 4.76 9.81L4.76 9.81L4.76 9.81Q5.05 9.90 5.12 9.78L5.12 9.78L5.12 9.78Q5.19 9.66 5.25 9.46L5.25 9.46L5.25 9.46Q5.33 9.04 5.36 8.43L5.36 8.43L5.36 8.43Q5.39 7.81 5.36 7.29L5.36 7.29L5.36 7.29Q5.33 6.85 5.21 6.50L5.21 6.50L5.21 6.50Q5.10 6.15 4.76 5.80L4.76 5.80L4.76 5.80Q4.44 5.52 3.96 5.27L3.96 5.27L3.96 5.27Q3.47 5.03 3.01 4.97L3.01 4.97L3.01 4.97Q2.70 4.94 2.35 5.05L2.35 5.05L2.35 5.05Q2.00 5.17 1.65 5.56L1.65 5.56L1.65 5.56Q1.22 6.06 0.85 6.76L0.85 6.76L0.85 6.76Q0.49 7.45 0.22 8.25L0.22 8.25L0.22 8.25Q-0.04 9.06-0.21 9.92L-0.21 9.92L-0.21 9.92Q-0.38 10.78-0.43 11.61L-0.43 11.61L-0.43 11.61Q-0.48 12.45-0.41 13.19L-0.41 13.19L-0.41 13.19Q-0.34 13.93-0.13 14.50L-0.13 14.50L-0.13 14.50Q0 14.90 0.24 15.19L0.24 15.19L0.24 15.19Q0.49 15.48 0.73 15.64L0.73 15.64L0.73 15.64Q1.01 15.78 1.36 15.94L1.36 15.94L1.36 15.94Q1.72 16.10 2.16 16.16L2.16 16.16L2.16 16.16Q2.58 16.21 3.00 16.05L3.00 16.05L3.00 16.05Q3.43 15.89 3.70 15.62L3.70 15.62L3.70 15.62Q3.95 15.34 4.20 14.92L4.20 14.92L4.20 14.92Q4.45 14.50 4.61 14.01L4.61 14.01L4.61 14.01Q4.75 13.59 4.73 13.31L4.73 13.31L4.73 13.31Q4.70 13.03 4.35 12.89ZM5.87 14.53L5.87 14.53L5.87 14.53Q5.98 14.90 6.15 15.12L6.15 15.12L6.15 15.12Q6.31 15.34 6.50 15.50L6.50 15.50L6.50 15.50Q6.96 15.90 7.69 15.96L7.69 15.96L7.69 15.96Q7.74 15.96 7.80 15.97L7.80 15.97L7.80 15.97Q7.85 15.97 7.91 15.97L7.91 15.97L7.91 15.97Q8.19 15.97 8.43 15.89L8.43 15.89L8.43 15.89Q8.67 15.81 8.90 15.62L8.90 15.62L8.90 15.62Q9.28 15.29 9.56 14.62L9.56 14.62L9.56 14.62Q9.84 13.94 10.07 13.00L10.07 13.00L10.07 13.00Q10.29 12.05 10.46 10.86L10.46 10.86L10.46 10.86Q10.64 9.67 10.79 8.30L10.79 8.30L10.79 8.32L10.79 8.32Q10.81 8.25 10.81 8.19L10.81 8.19L10.81 8.19Q10.81 8.13 10.81 8.08L10.81 8.08L10.81 8.08Q10.81 7.92 10.75 7.81L10.75 7.81L10.75 7.81Q10.68 7.70 10.51 7.55L10.51 7.55L10.51 7.55Q10.26 7.35 9.97 7.17L9.97 7.17L9.97 7.17Q9.67 6.99 9.44 6.99L9.44 6.99L9.44 6.99Q9.04 6.99 9.03 7.45L9.03 7.45L9.03 7.45Q8.96 7.98 8.88 8.69L8.88 8.69L8.88 8.69Q8.79 9.41 8.68 10.16L8.68 10.16L8.68 10.16Q8.57 10.92 8.44 11.66L8.44 11.66L8.44 11.66Q8.30 12.40 8.16 12.98L8.16 12.98L8.16 12.98Q8.02 13.57 7.87 13.92L7.87 13.92L7.87 13.92Q7.71 14.28 7.55 14.28L7.55 14.28L7.53 14.28L7.53 14.28Q7.43 14.24 7.40 14.03L7.40 14.03L7.40 14.03Q7.36 13.82 7.36 13.50L7.36 13.50L7.36 13.50Q7.36 13.03 7.44 12.43L7.44 12.43L7.44 12.43Q7.52 11.82 7.64 11.16L7.64 11.16L7.64 11.16Q7.76 10.50 7.89 9.86L7.89 9.86L7.89 9.86Q8.02 9.21 8.15 8.69L8.15 8.69L8.13 8.71L8.13 8.71Q8.16 8.61 8.17 8.55L8.17 8.55L8.17 8.55Q8.18 8.48 8.18 8.41L8.18 8.41L8.18 8.41Q8.18 7.98 7.87 7.67L7.87 7.67L7.87 7.67Q7.69 7.50 7.50 7.37L7.50 7.37L7.50 7.37Q7.31 7.24 7.11 7.17L7.11 7.17L7.11 7.17Q6.97 7.10 6.85 7.10L6.85 7.10L6.85 7.10Q6.69 7.10 6.59 7.19L6.59 7.19L6.59 7.19Q6.50 7.28 6.44 7.52L6.44 7.52L6.44 7.52Q6.30 8.13 6.15 8.82L6.15 8.82L6.15 8.82Q6.01 9.51 5.89 10.21L5.89 10.21L5.89 10.21Q5.78 10.91 5.71 11.59L5.71 11.59L5.71 11.59Q5.63 12.28 5.63 12.89L5.63 12.89L5.63 12.89Q5.63 13.38 5.68 13.80L5.68 13.80L5.68 13.80Q5.74 14.21 5.87 14.53ZM13.94 15.32L13.94 15.32L13.94 15.32Q14.14 15.26 14.22 15.20L14.22 15.20L14.22 15.20Q14.31 15.13 14.31 14.98L14.31 14.98L14.31 14.98Q14.31 14.91 14.29 14.84L14.29 14.84L14.29 14.84Q14.28 14.77 14.25 14.69L14.25 14.69L14.25 14.69Q14.18 14.31 14 13.87L14 13.87L14 13.87Q13.82 13.48 13.50 13.48L13.50 13.48L13.50 13.48Q13.47 13.48 13.43 13.48L13.43 13.48L13.43 13.48Q13.40 13.48 13.33 13.51L13.33 13.51L13.36 13.50L13.36 13.50Q13.06 13.52 12.80 13.56L12.80 13.56L12.80 13.56Q12.54 13.59 12.28 13.65L12.28 13.65L12.28 13.65Q12.39 12.96 12.52 12.23L12.52 12.23L12.52 12.23Q12.66 11.49 12.78 10.78L12.78 10.78L12.78 10.78Q12.91 10.07 13.04 9.41L13.04 9.41L13.04 9.41Q13.17 8.76 13.29 8.23L13.29 8.23L13.29 8.25L13.29 8.25Q13.33 8.11 13.33 7.97L13.33 7.97L13.33 7.97Q13.33 7.70 13.03 7.45L13.03 7.45L13.03 7.45Q12.84 7.28 12.59 7.15L12.59 7.15L12.59 7.15Q12.33 7.01 12.14 6.94L12.14 6.94L12.15 6.96L12.15 6.96Q12.04 6.90 11.90 6.90L11.90 6.90L11.90 6.90Q11.75 6.90 11.65 6.99L11.65 6.99L11.65 6.99Q11.55 7.08 11.49 7.32L11.49 7.32L11.49 7.32Q11.34 8.01 11.17 8.93L11.17 8.93L11.17 8.93Q11.00 9.86 10.86 10.82L10.86 10.82L10.86 10.82Q10.71 11.77 10.60 12.67L10.60 12.67L10.60 12.67Q10.49 13.57 10.43 14.20L10.43 14.20L10.43 14.20Q10.43 14.24 10.42 14.29L10.42 14.29L10.42 14.29Q10.42 14.34 10.42 14.38L10.42 14.38L10.42 14.38Q10.42 14.62 10.49 14.79L10.49 14.79L10.49 14.79Q10.57 14.97 10.68 15.12L10.68 15.12L10.68 15.12Q10.74 15.19 10.79 15.25L10.79 15.25L10.79 15.25Q10.84 15.30 10.88 15.36L10.88 15.36L10.88 15.36Q10.96 15.46 11.03 15.54L11.03 15.54L11.03 15.54Q11.10 15.62 11.19 15.71L11.19 15.71L11.17 15.71L11.17 15.71Q11.24 15.81 11.35 15.88L11.35 15.88L11.35 15.88Q11.45 15.95 11.65 15.95L11.65 15.95L11.65 15.95Q11.82 15.95 12.05 15.85L12.05 15.85L12.04 15.86L12.04 15.86Q12.49 15.74 12.98 15.60L12.98 15.60L12.98 15.60Q13.47 15.46 13.94 15.32ZM16.91 7.62L16.91 7.62L16.91 7.62Q16.72 7.45 16.47 7.31L16.47 7.31L16.47 7.31Q16.23 7.17 16.00 7.08L16.00 7.08L16.02 7.08L16.02 7.08Q15.90 7.03 15.76 7.03L15.76 7.03L15.76 7.03Q15.60 7.03 15.51 7.13L15.51 7.13L15.51 7.13Q15.43 7.22 15.36 7.46L15.36 7.46L15.36 7.46Q15.27 7.88 15.18 8.48L15.18 8.48L15.18 8.48Q15.09 9.07 15.00 9.75L15.00 9.75L15.00 9.75Q14.91 10.43 14.81 11.14L14.81 11.14L14.81 11.14Q14.71 11.86 14.64 12.52L14.64 12.52L14.64 12.52Q14.56 13.19 14.50 13.76L14.50 13.76L14.50 13.76Q14.45 14.34 14.43 14.71L14.43 14.71L14.43 14.88L14.43 14.88Q14.43 15.13 14.50 15.28L14.50 15.28L14.50 15.28Q14.56 15.43 14.74 15.55L14.74 15.55L14.74 15.55Q14.90 15.68 15.08 15.77L15.08 15.77L15.08 15.77Q15.27 15.86 15.47 15.93L15.47 15.93L15.47 15.93Q15.58 15.99 15.69 15.99L15.69 15.99L15.69 15.99Q15.85 15.99 15.92 15.90L15.92 15.90L15.92 15.90Q15.99 15.81 16.03 15.60L16.03 15.60L16.03 15.60Q16.13 14.85 16.27 13.87L16.27 13.87L16.27 13.87Q16.41 12.88 16.57 11.87L16.57 11.87L16.57 11.87Q16.73 10.86 16.88 9.94L16.88 9.94L16.88 9.94Q17.04 9.02 17.18 8.40L17.18 8.40L17.18 8.40Q17.19 8.33 17.20 8.27L17.20 8.27L17.20 8.27Q17.21 8.22 17.21 8.15L17.21 8.15L17.21 8.15Q17.21 7.98 17.14 7.88L17.14 7.88L17.14 7.88Q17.07 7.77 16.91 7.62ZM19.85 8.43L19.85 8.43L19.85 8.43Q19.81 8.05 19.70 7.85L19.70 7.85L19.70 7.85Q19.60 7.64 19.36 7.52L19.36 7.52L19.36 7.53L19.36 7.53Q19.15 7.38 18.94 7.29L18.94 7.29L18.94 7.29Q18.73 7.21 18.52 7.13L18.52 7.13L18.52 7.13Q18.49 7.11 18.46 7.10L18.46 7.10L18.46 7.10Q18.42 7.08 18.40 7.07L18.40 7.07L18.41 7.07L18.41 7.07Q18.30 7.01 18.17 7.01L18.17 7.01L18.17 7.01Q17.85 7.01 17.72 7.49L17.72 7.49L17.72 7.49Q17.63 7.95 17.53 8.58L17.53 8.58L17.53 8.58Q17.43 9.21 17.33 9.91L17.33 9.91L17.33 9.91Q17.23 10.61 17.14 11.33L17.14 11.33L17.14 11.33Q17.05 12.04 16.97 12.68L16.97 12.68L16.97 12.68Q16.90 13.31 16.84 13.83L16.84 13.83L16.84 13.83Q16.79 14.35 16.77 14.64L16.77 14.64L16.77 14.63L16.77 14.63Q16.76 14.70 16.76 14.76L16.76 14.76L16.76 14.76Q16.76 14.81 16.76 14.87L16.76 14.87L16.76 14.87Q16.76 15.11 16.83 15.24L16.83 15.24L16.83 15.24Q16.90 15.37 17.05 15.50L17.05 15.50L17.05 15.50Q17.19 15.64 17.37 15.72L17.37 15.72L17.37 15.72Q17.54 15.81 17.74 15.88L17.74 15.88L17.74 15.88Q17.78 15.89 17.77 15.88L17.77 15.88L17.77 15.88Q17.77 15.88 17.79 15.89L17.79 15.89L17.79 15.89Q17.95 15.95 18.03 15.95L18.03 15.95L18.03 15.95Q18.20 15.95 18.26 15.86L18.26 15.86L18.26 15.86Q18.31 15.78 18.34 15.58L18.34 15.58L18.34 15.58Q18.40 15.12 18.48 14.50L18.48 14.50L18.48 14.50Q18.56 13.89 18.66 13.19L18.66 13.19L18.66 13.19Q18.70 12.88 18.75 12.56L18.75 12.56L18.75 12.56Q18.79 12.24 18.84 11.91L18.84 11.91L18.84 11.91Q19.00 12.75 19.17 13.52L19.17 13.52L19.17 13.52Q19.35 14.28 19.50 14.81L19.50 14.81L19.50 14.80L19.50 14.80Q19.57 15.08 19.71 15.27L19.71 15.27L19.71 15.27Q19.85 15.47 20.03 15.57L20.03 15.57L20.03 15.57Q20.23 15.67 20.40 15.74L20.40 15.74L20.40 15.74Q20.58 15.82 20.76 15.88L20.76 15.88L20.75 15.86L20.75 15.86Q20.82 15.89 20.87 15.90L20.87 15.90L20.87 15.90Q20.92 15.90 20.97 15.90L20.97 15.90L20.97 15.90Q21.35 15.90 21.38 15.46L21.38 15.46L21.38 15.46Q21.41 15.30 21.42 15.14L21.42 15.14L21.42 15.14Q21.43 14.98 21.46 14.81L21.46 14.81L21.46 14.81Q21.56 14.04 21.69 13.17L21.69 13.17L21.69 13.17Q21.81 12.29 21.94 11.42L21.94 11.42L21.94 11.42Q22.06 10.54 22.18 9.74L22.18 9.74L22.18 9.74Q22.30 8.95 22.41 8.33L22.41 8.33L22.41 8.33Q22.43 8.26 22.43 8.19L22.43 8.19L22.43 8.19Q22.44 8.12 22.44 8.05L22.44 8.05L22.44 8.05Q22.44 7.88 22.38 7.76L22.38 7.76L22.38 7.76Q22.32 7.63 22.15 7.48L22.15 7.48L22.15 7.48Q22.02 7.36 21.92 7.29L21.92 7.29L21.92 7.29Q21.83 7.22 21.75 7.18L21.75 7.18L21.75 7.18Q21.67 7.14 21.59 7.11L21.59 7.11L21.59 7.11Q21.50 7.08 21.39 7.06L21.39 7.06L21.41 7.07L21.41 7.07Q21.29 7.01 21.17 7.01L21.17 7.01L21.17 7.01Q20.85 7.01 20.76 7.46L20.76 7.46L20.76 7.46Q20.62 8.22 20.47 9.13L20.47 9.13L20.47 9.13Q20.33 10.04 20.20 11.05L20.20 11.05L20.20 11.05Q20.09 10.25 19.99 9.53L19.99 9.53L19.99 9.53Q19.89 8.82 19.85 8.43ZM25.62 14.91L25.62 14.91L25.62 14.91Q25.65 15.05 25.65 15.09L25.65 15.09L25.65 15.09Q25.68 15.46 25.77 15.60L25.77 15.60L25.77 15.60Q25.87 15.74 26.08 15.85L26.08 15.85L26.08 15.85Q26.28 15.95 26.46 15.96L26.46 15.96L26.46 15.96Q26.64 15.97 26.85 15.97L26.85 15.97L26.85 15.97Q27.13 15.97 27.21 15.87L27.21 15.87L27.21 15.87Q27.29 15.76 27.29 15.48L27.29 15.48L27.29 15.48Q27.24 14.70 27.21 13.84L27.21 13.84L27.21 13.84Q27.17 12.98 27.15 12.12L27.15 12.12L27.15 12.12Q27.12 11.27 27.10 10.46L27.10 10.46L27.10 10.46Q27.09 9.66 27.09 8.99L27.09 8.99L27.09 8.99Q27.09 8.72 27.10 8.49L27.10 8.49L27.10 8.49Q27.10 8.26 27.10 8.05L27.10 8.05L27.10 7.97L27.10 7.97Q27.10 7.71 27.02 7.54L27.02 7.54L27.02 7.54Q26.94 7.36 26.70 7.25L26.70 7.25L26.70 7.25Q26.66 7.22 26.61 7.22L26.61 7.22L26.61 7.22Q26.56 7.21 26.52 7.18L26.52 7.18L26.52 7.18Q26.25 7.08 25.94 6.99L25.94 6.99L25.94 6.99Q25.63 6.90 25.17 6.87L25.17 6.87L25.07 6.87L25.07 6.87Q24.75 6.87 24.59 7.04L24.59 7.04L24.59 7.04Q24.43 7.21 24.33 7.45L24.33 7.45L24.33 7.45Q24.04 8.13 23.70 9.05L23.70 9.05L23.70 9.05Q23.37 9.97 23.04 10.94L23.04 10.94L23.04 10.94Q22.71 11.91 22.41 12.85L22.41 12.85L22.41 12.85Q22.12 13.79 21.91 14.52L21.91 14.52L21.91 14.52Q21.88 14.64 21.87 14.76L21.87 14.76L21.87 14.76Q21.85 14.87 21.85 14.95L21.85 14.95L21.85 14.95Q21.85 15.16 21.92 15.27L21.92 15.27L21.92 15.27Q21.99 15.37 22.11 15.48L22.11 15.48L22.18 15.57L22.18 15.57Q22.25 15.64 22.34 15.69L22.34 15.69L22.34 15.69Q22.43 15.74 22.51 15.79L22.51 15.79L22.51 15.79Q22.58 15.82 22.60 15.83L22.60 15.83L22.60 15.83Q22.61 15.85 22.64 15.86L22.64 15.86L22.64 15.86Q22.72 15.90 22.78 15.93L22.78 15.93L22.78 15.93Q22.85 15.96 22.92 15.96L22.92 15.96L22.92 15.96Q23.13 15.96 23.24 15.62L23.24 15.62L23.24 15.62Q23.27 15.51 23.32 15.41L23.32 15.41L23.32 15.41Q23.37 15.30 23.39 15.19L23.39 15.19L23.39 15.19Q23.46 14.94 23.53 14.69L23.53 14.69L23.53 14.69Q23.60 14.43 23.72 14.15L23.72 14.15L23.72 14.15Q24.00 14.06 24.37 13.98L24.37 13.98L24.37 13.98Q24.74 13.90 25.17 13.80L25.17 13.80L25.17 13.80Q25.26 13.79 25.35 13.78L25.35 13.78L25.35 13.78Q25.44 13.76 25.52 13.73L25.52 13.73L25.52 13.73Q25.55 14.06 25.57 14.36L25.57 14.36L25.57 14.36Q25.59 14.66 25.62 14.91ZM25.37 9.52L25.37 9.52L25.37 9.52Q25.37 10.07 25.38 10.63L25.38 10.63L25.38 10.63Q25.40 11.19 25.42 11.77L25.42 11.77L25.42 11.77Q25.17 11.80 24.94 11.84L24.94 11.84L24.94 11.84Q24.71 11.87 24.49 11.91L24.49 11.91L24.49 11.91Q24.72 11.26 24.94 10.65L24.94 10.65L24.94 10.65Q25.16 10.05 25.37 9.52ZM30.97 15.54L30.97 15.54L30.97 15.54Q31.16 15.72 31.32 15.79L31.32 15.79L31.32 15.79Q31.49 15.86 31.64 15.86L31.64 15.86L31.64 15.86Q31.70 15.86 31.78 15.83L31.78 15.83L31.78 15.83Q31.86 15.81 31.96 15.78L31.96 15.78L31.96 15.78Q31.95 15.79 32.00 15.79L32.00 15.79L32.00 15.79Q32.12 15.76 32.22 15.71L32.22 15.71L32.22 15.71Q32.33 15.67 32.45 15.51L32.45 15.51L32.45 15.51Q32.59 15.34 32.59 15.19L32.59 15.19L32.59 15.19Q32.59 15.01 32.42 14.80L32.42 14.80L32.42 14.80Q32.23 14.59 32.02 14.32L32.02 14.32L32.02 14.32Q31.82 14.04 31.62 13.75L31.62 13.75L31.62 13.75Q31.42 13.45 31.23 13.16L31.23 13.16L31.23 13.16Q31.04 12.87 30.87 12.61L30.87 12.61L30.87 12.61Q31.63 12.11 32.16 11.53L32.16 11.53L32.16 11.53Q32.70 10.95 32.93 10.28L32.93 10.28L32.91 10.29L32.91 10.29Q32.97 10.16 32.98 10.03L32.98 10.03L32.98 10.03Q33.00 9.90 33.00 9.74L33.00 9.74L33.00 9.74Q33.00 9.45 32.94 9.18L32.94 9.18L32.94 9.18Q32.80 8.58 32.59 8.18L32.59 8.18L32.59 8.18Q32.38 7.78 32.14 7.45L32.14 7.45L32.14 7.45Q31.91 7.14 31.62 7.02L31.62 7.02L31.62 7.02Q31.33 6.90 31.01 6.90L31.01 6.90L31.01 6.90Q30.46 6.90 29.88 7.18L29.88 7.18L29.88 7.18Q29.29 7.46 28.74 7.78L28.74 7.78L28.74 7.78Q28.63 7.87 28.52 8.23L28.52 8.23L28.52 8.23Q28.42 8.58 28.32 9.11L28.32 9.11L28.32 9.11Q28.22 9.63 28.13 10.28L28.13 10.28L28.13 10.28Q28.04 10.93 27.96 11.60L27.96 11.60L27.96 11.60Q27.87 12.26 27.80 12.89L27.80 12.89L27.80 12.89Q27.73 13.52 27.69 14L27.69 14L27.69 14Q27.66 14.24 27.64 14.43L27.64 14.43L27.64 14.43Q27.62 14.62 27.61 14.74L27.61 14.74L27.61 14.92L27.61 14.92Q27.61 15.18 27.66 15.33L27.66 15.33L27.66 15.33Q27.72 15.48 27.86 15.61L27.86 15.61L27.86 15.61Q27.97 15.72 28.12 15.77L28.12 15.77L28.12 15.77Q28.27 15.82 28.42 15.88L28.42 15.88L28.42 15.88Q28.45 15.88 28.48 15.89L28.48 15.89L28.48 15.89Q28.50 15.90 28.53 15.92L28.53 15.92L28.53 15.92Q28.60 15.95 28.65 15.95L28.65 15.95L28.65 15.95Q28.70 15.96 28.74 15.96L28.74 15.96L28.74 15.96Q28.91 15.96 28.98 15.87L28.98 15.87L28.98 15.87Q29.05 15.78 29.08 15.58L29.08 15.58L29.16 15.04L29.16 15.04Q29.22 14.67 29.27 14.29L29.27 14.29L29.27 14.29Q29.33 13.90 29.40 13.50L29.40 13.50L29.40 13.50Q29.78 14.10 30.21 14.66L30.21 14.66L30.21 14.66Q30.65 15.22 30.97 15.54ZM31.04 8.93L31.04 8.93L31.04 8.93Q31.33 8.93 31.40 9.14L31.40 9.14L31.40 9.14Q31.39 9.11 31.39 9.17L31.39 9.17L31.39 9.17Q31.39 9.34 31.28 9.57L31.28 9.57L31.28 9.57Q31.18 9.80 30.98 10.07L30.98 10.07L30.98 10.07Q30.79 10.33 30.50 10.59L30.50 10.59L30.50 10.59Q30.21 10.85 29.85 11.06L29.85 11.06L29.85 11.06Q29.93 10.64 30.02 10.26L30.02 10.26L30.02 10.26Q30.07 9.98 30.12 9.71L30.12 9.71L30.12 9.71Q30.17 9.44 30.24 9.18L30.24 9.18L30.24 9.18Q30.46 9.04 30.66 8.99L30.66 8.99L30.66 8.99Q30.86 8.93 31.04 8.93ZM38.04 8.47L38.02 8.47L38.02 8.47Q38.12 8.19 38.12 8.04L38.12 8.04L38.12 8.04Q38.12 7.78 37.95 7.56L37.95 7.56L37.95 7.56Q37.87 7.46 37.75 7.34L37.75 7.34L37.75 7.34Q37.63 7.21 37.51 7.11L37.51 7.11L37.51 7.11Q37.38 7 37.25 6.93L37.25 6.93L37.25 6.93Q37.13 6.86 37.03 6.86L37.03 6.86L37.03 6.86Q36.90 6.86 36.81 6.93L36.81 6.93L36.81 6.93Q36.72 7 36.68 7.20L36.68 7.20L36.68 7.20Q36.61 7.34 36.56 7.47L36.56 7.47L36.56 7.47Q36.51 7.60 36.46 7.74L36.46 7.74L36.46 7.74Q36.22 8.33 35.98 8.90L35.98 8.90L35.98 8.90Q35.74 9.46 35.48 10.05L35.48 10.05L35.48 10.05Q35.32 9.38 35.20 8.83L35.20 8.83L35.20 8.83Q35.07 8.27 34.96 7.80L34.96 7.80L34.96 7.80Q34.83 7.43 34.72 7.25L34.72 7.25L34.72 7.25Q34.61 7.07 34.37 7L34.37 7L34.37 7Q34.17 6.93 33.96 6.93L33.96 6.93L33.96 6.93Q33.87 6.93 33.78 6.94L33.78 6.94L33.78 6.94Q33.70 6.94 33.63 6.96L33.63 6.96L33.63 6.96Q33.60 6.96 33.58 6.96L33.58 6.96L33.58 6.96Q33.56 6.97 33.54 6.97L33.54 6.97L33.54 6.97Q33.35 7 33.27 7.08L33.27 7.08L33.27 7.08Q33.19 7.15 33.19 7.32L33.19 7.32L33.19 7.32Q33.19 7.45 33.24 7.59L33.24 7.59L33.24 7.57L33.24 7.57Q33.39 8.39 33.62 9.41L33.62 9.41L33.62 9.41Q33.85 10.44 34.09 11.48L34.09 11.48L34.09 11.48Q34.15 11.72 34.20 11.96L34.20 11.96L34.20 11.96Q34.24 12.19 34.30 12.43L34.30 12.43L34.30 12.43Q34.23 12.91 34.20 13.35L34.20 13.35L34.20 13.35Q34.16 13.79 34.12 14.17L34.12 14.17L34.12 14.17Q34.09 14.34 34.08 14.49L34.08 14.49L34.08 14.49Q34.08 14.64 34.05 14.80L34.05 14.80L34.05 14.78L34.05 14.78Q34.03 14.85 34.03 14.91L34.03 14.91L34.03 14.91Q34.03 14.97 34.03 15.02L34.03 15.02L34.03 15.02Q34.03 15.23 34.10 15.37L34.10 15.37L34.10 15.37Q34.16 15.50 34.30 15.64L34.30 15.64L34.30 15.64Q34.51 15.78 34.72 15.88L34.72 15.88L34.72 15.88Q34.93 15.99 35.08 16.06L35.08 16.06L35.08 16.06Q35.15 16.09 35.22 16.10L35.22 16.10L35.22 16.10Q35.28 16.11 35.32 16.11L35.32 16.11L35.32 16.11Q35.48 16.11 35.55 16.02L35.55 16.02L35.55 16.02Q35.62 15.93 35.66 15.69L35.66 15.69L35.66 15.69Q35.73 15.09 35.82 14.46L35.82 14.46L35.82 14.46Q35.91 13.83 36.04 13.12L36.04 13.12L36.04 13.12Q36.34 12.47 36.66 11.79L36.66 11.79L36.66 11.79Q36.97 11.10 37.25 10.48L37.25 10.48L37.25 10.48Q37.52 9.86 37.73 9.33L37.73 9.33L37.73 9.33Q37.94 8.81 38.04 8.47L38.04 8.47ZM45.15 13.20L45.15 13.20L45.15 13.20Q44.91 13.10 44.70 13.10L44.70 13.10L44.70 13.10Q44.21 13.10 43.88 13.62L43.88 13.62L43.88 13.62Q43.43 14.34 43.19 14.34L43.19 14.34L43.19 14.34Q43.16 14.34 43.15 14.32L43.15 14.32L43.15 14.32Q43.04 14.27 42.98 13.97L42.98 13.97L42.98 13.97Q42.92 13.68 42.92 13.23L42.92 13.23L42.92 13.23Q42.92 12.82 42.97 12.36L42.97 12.36L42.97 12.36Q43.02 11.90 43.12 11.44L43.12 11.44L43.12 11.44Q43.20 11.02 43.34 10.54L43.34 10.54L43.34 10.54Q43.48 10.05 43.64 9.64L43.64 9.64L43.64 9.64Q43.79 9.23 43.95 8.95L43.95 8.95L43.95 8.95Q44.11 8.68 44.23 8.65L44.23 8.65L44.23 8.65Q44.31 8.69 44.32 8.90L44.32 8.90L44.32 8.90Q44.34 9.11 44.34 9.37L44.34 9.37L44.34 9.55L44.34 9.55Q44.34 9.59 44.34 9.65L44.34 9.65L44.34 9.65Q44.35 9.72 44.35 9.76L44.35 9.76L44.35 9.76Q44.42 10.26 44.65 10.56L44.65 10.56L44.65 10.56Q44.88 10.86 45.37 11.00L45.37 11.00L45.37 11.00Q45.42 11.02 45.46 11.03L45.46 11.03L45.46 11.03Q45.50 11.03 45.57 11.03L45.57 11.03L45.57 11.03Q45.79 11.03 45.85 10.91L45.85 10.91L45.85 10.91Q45.91 10.78 45.95 10.61L45.95 10.61L45.95 10.61Q45.99 10.37 46.02 10.02L46.02 10.02L46.02 10.02Q46.05 9.67 46.05 9.32L46.05 9.32L46.05 9.32Q46.05 9.20 46.05 9.07L46.05 9.07L46.05 9.07Q46.05 8.95 46.03 8.83L46.03 8.83L46.03 8.83Q46.00 8.46 45.91 8.16L45.91 8.16L45.91 8.16Q45.82 7.87 45.51 7.56L45.51 7.56L45.51 7.56Q45.23 7.32 44.83 7.11L44.83 7.11L44.83 7.11Q44.42 6.89 44.03 6.85L44.03 6.85L43.90 6.85L43.90 6.85Q43.65 6.85 43.37 6.95L43.37 6.95L43.37 6.95Q43.09 7.06 42.81 7.36L42.81 7.36L42.81 7.36Q42.42 7.81 42.10 8.46L42.10 8.46L42.10 8.46Q41.79 9.10 41.57 9.84L41.57 9.84L41.57 9.84Q41.34 10.57 41.22 11.35L41.22 11.35L41.22 11.35Q41.10 12.14 41.10 12.85L41.10 12.85L41.10 12.85Q41.10 13.37 41.17 13.84L41.17 13.84L41.17 13.84Q41.23 14.31 41.38 14.67L41.38 14.67L41.37 14.66L41.37 14.66Q41.47 14.98 41.70 15.25L41.70 15.25L41.70 15.25Q41.93 15.51 42.18 15.67L42.18 15.67L42.29 15.72L42.28 15.72L42.28 15.72Q42.49 15.83 42.75 15.95L42.75 15.95L42.75 15.95Q43.01 16.06 43.32 16.09L43.32 16.09L43.32 16.09Q43.36 16.09 43.40 16.09L43.40 16.09L43.40 16.09Q43.44 16.10 43.48 16.10L43.48 16.10L43.48 16.10Q43.82 16.10 44.13 15.96L44.13 15.96L44.13 15.96Q44.45 15.82 44.66 15.61L44.66 15.61L44.66 15.61Q44.88 15.37 45.09 15.02L45.09 15.02L45.09 15.02Q45.30 14.67 45.43 14.27L45.43 14.27L45.43 14.27Q45.47 14.13 45.50 13.99L45.50 13.99L45.50 13.99Q45.53 13.86 45.53 13.75L45.53 13.75L45.53 13.75Q45.53 13.38 45.15 13.20ZM44.23 8.65L44.24 8.65L44.24 8.65Q44.25 8.65 44.26 8.66L44.26 8.66L44.26 8.66Q44.27 8.67 44.28 8.67L44.28 8.67L44.23 8.65ZM50.30 7.66L50.30 7.66L50.30 7.66Q50.05 7.39 49.70 7.22L49.70 7.22L49.70 7.22Q49.35 7.04 48.96 6.97L48.96 6.97L48.96 6.97Q48.92 6.96 48.86 6.96L48.86 6.96L48.86 6.96Q48.80 6.96 48.75 6.96L48.75 6.96L48.75 6.96Q48.47 6.96 48.19 7.08L48.19 7.08L48.19 7.08Q47.91 7.20 47.68 7.43L47.68 7.43L47.68 7.43Q47.29 7.87 46.99 8.46L46.99 8.46L46.99 8.46Q46.69 9.06 46.48 9.73L46.48 9.73L46.48 9.73Q46.27 10.40 46.16 11.12L46.16 11.12L46.16 11.12Q46.06 11.83 46.06 12.52L46.06 12.52L46.06 12.52Q46.06 13.05 46.12 13.54L46.12 13.54L46.12 13.54Q46.19 14.03 46.34 14.46L46.34 14.46L46.33 14.46L46.33 14.46Q46.44 14.78 46.63 15.05L46.63 15.05L46.63 15.05Q46.83 15.32 47.05 15.50L47.05 15.50L47.05 15.50Q47.32 15.69 47.63 15.80L47.63 15.80L47.63 15.80Q47.94 15.90 48.24 15.95L48.24 15.95L48.24 15.95Q48.31 15.96 48.39 15.97L48.39 15.97L48.39 15.97Q48.47 15.97 48.55 15.97L48.55 15.97L48.55 15.97Q49.22 15.97 49.74 15.37L49.74 15.37L49.74 15.37Q50.08 14.91 50.32 14.32L50.32 14.32L50.32 14.32Q50.55 13.73 50.71 13.07L50.71 13.07L50.71 13.07Q50.86 12.40 50.94 11.72L50.94 11.72L50.94 11.72Q51.02 11.03 51.02 10.37L51.02 10.37L51.02 10.37Q51.02 9.65 50.93 9.03L50.93 9.03L50.93 9.03Q50.86 8.60 50.72 8.27L50.72 8.27L50.72 8.27Q50.58 7.94 50.30 7.66ZM49.11 8.76L49.11 8.76L49.11 8.76Q49.21 8.79 49.25 9.14L49.25 9.14L49.25 9.14Q49.29 9.48 49.29 9.97L49.29 9.97L49.29 9.97Q49.29 10.42 49.25 10.91L49.25 10.91L49.25 10.91Q49.21 11.40 49.13 11.83L49.13 11.83L49.13 11.83Q49.04 12.35 48.92 12.80L48.92 12.80L48.92 12.80Q48.80 13.26 48.67 13.59L48.67 13.59L48.67 13.59Q48.54 13.93 48.41 14.12L48.41 14.12L48.41 14.12Q48.27 14.31 48.15 14.31L48.15 14.31L48.15 14.31Q48.12 14.31 48.10 14.29L48.10 14.29L48.10 14.29Q47.96 14.22 47.91 13.89L47.91 13.89L47.91 13.89Q47.85 13.57 47.85 13.09L47.85 13.09L47.85 13.09Q47.85 12.67 47.90 12.20L47.90 12.20L47.90 12.20Q47.95 11.73 48.05 11.28L48.05 11.28L48.05 11.28Q48.13 10.86 48.27 10.42L48.27 10.42L48.27 10.42Q48.41 9.97 48.56 9.60L48.56 9.60L48.56 9.60Q48.71 9.24 48.85 9.00L48.85 9.00L48.85 9.00Q49 8.76 49.11 8.76ZM53.40 14.24L53.40 14.24L53.40 14.24Q53.47 14.66 53.56 14.81L53.56 14.81L53.56 14.81Q53.65 14.97 53.84 15.06L53.84 15.06L53.84 15.06Q54.07 15.20 54.39 15.29L54.39 15.29L54.39 15.29Q54.43 15.30 54.47 15.31L54.47 15.31L54.47 15.31Q54.52 15.32 54.59 15.32L54.59 15.32L54.59 15.32Q54.77 15.32 54.82 15.21L54.82 15.21L54.82 15.21Q54.88 15.11 54.95 14.87L54.95 14.87L54.95 14.87Q55.03 14.60 55.15 14.24L55.15 14.24L55.15 14.24Q55.26 13.87 55.40 13.47L55.40 13.47L55.40 13.47Q55.54 13.06 55.69 12.62L55.69 12.62L55.69 12.62Q55.85 12.18 56 11.75L56 11.75L56 11.75Q55.87 12.64 55.79 13.46L55.79 13.46L55.79 13.46Q55.71 14.28 55.68 14.74L55.68 14.74L55.68 14.73L55.68 14.73Q55.66 14.80 55.66 14.94L55.66 14.94L55.66 14.94Q55.66 15.37 56 15.61L56 15.61L56 15.61Q56.14 15.72 56.36 15.81L56.36 15.81L56.36 15.81Q56.59 15.90 56.81 15.99L56.81 15.99L56.88 15.99L56.88 15.99Q57.06 15.99 57.14 15.87L57.14 15.87L57.14 15.87Q57.22 15.75 57.26 15.53L57.26 15.53L57.26 15.53Q57.33 14.94 57.46 14L57.46 14L57.46 14Q57.60 13.06 57.75 12.03L57.75 12.03L57.75 12.03Q57.90 11.00 58.06 10.03L58.06 10.03L58.06 10.03Q58.21 9.06 58.32 8.40L58.32 8.40L58.32 8.41L58.32 8.41Q58.35 8.34 58.35 8.27L58.35 8.27L58.35 8.27Q58.35 8.19 58.35 8.11L58.35 8.11L58.35 8.11Q58.35 7.90 58.27 7.76L58.27 7.76L58.27 7.76Q58.18 7.63 58.00 7.52L58.00 7.52L58.00 7.52Q57.68 7.32 57.37 7.20L57.37 7.20L57.37 7.20Q57.06 7.07 56.80 6.97L56.80 6.97L56.80 6.97Q56.56 6.89 56.43 6.89L56.43 6.89L56.43 6.89Q56.11 6.89 55.94 7.20L55.94 7.20L55.94 7.20Q55.76 7.50 55.52 8.19L55.52 8.19L55.52 8.18L55.52 8.18Q55.29 8.76 55.03 9.46L55.03 9.46L55.03 9.46Q54.77 10.15 54.54 10.79L54.54 10.79L54.54 10.79Q54.46 10.05 54.42 9.62L54.42 9.62L54.42 9.62Q54.38 9.18 54.36 8.95L54.36 8.95L54.36 8.95Q54.33 8.71 54.33 8.61L54.33 8.61L54.33 8.61Q54.32 8.51 54.32 8.43L54.32 8.43L54.32 8.43Q54.28 8.06 54.18 7.83L54.18 7.83L54.18 7.83Q54.08 7.60 53.73 7.41L53.73 7.41L53.73 7.41Q53.47 7.27 53.22 7.18L53.22 7.18L53.22 7.18Q52.98 7.08 52.63 7.01L52.63 7.01L52.63 7.01Q52.58 7 52.53 7L52.53 7L52.53 7Q52.49 7 52.44 7L52.44 7L52.44 7Q52.22 7 52.12 7.11L52.12 7.11L52.12 7.11Q52.01 7.22 51.94 7.53L51.94 7.53L51.94 7.53Q51.86 7.95 51.77 8.53L51.77 8.53L51.77 8.53Q51.67 9.11 51.58 9.77L51.58 9.77L51.58 9.77Q51.48 10.43 51.38 11.14L51.38 11.14L51.38 11.14Q51.28 11.84 51.20 12.51L51.20 12.51L51.20 12.51Q51.13 13.17 51.06 13.76L51.06 13.76L51.06 13.76Q51.00 14.35 50.99 14.77L50.99 14.77L50.99 14.94L50.99 14.94Q50.99 15.20 51.06 15.34L51.06 15.34L51.06 15.34Q51.13 15.48 51.31 15.61L51.31 15.61L51.31 15.61Q51.65 15.86 52.01 15.97L52.01 15.97L52.01 15.97Q52.05 15.99 52.09 16.00L52.09 16.00L52.09 16.00Q52.14 16.00 52.21 16.00L52.21 16.00L52.21 16.00Q52.37 16.00 52.44 15.90L52.44 15.90L52.44 15.90Q52.51 15.79 52.54 15.58L52.54 15.58L52.54 15.58Q52.61 14.83 52.75 13.79L52.75 13.79L52.75 13.79Q52.89 12.75 53.06 11.66L53.06 11.66L53.06 11.66Q53.13 12.38 53.21 13.03L53.21 13.03L53.21 13.03Q53.30 13.69 53.40 14.24ZM62.99 11.17L62.99 11.17L62.99 11.17Q63.21 10.84 63.37 10.46L63.37 10.46L63.37 10.46Q63.53 10.09 63.53 9.66L63.53 9.66L63.53 9.66Q63.53 9.53 63.52 9.41L63.52 9.41L63.52 9.41Q63.50 9.30 63.48 9.18L63.48 9.18L63.48 9.18Q63.34 8.58 63.13 8.18L63.13 8.18L63.13 8.18Q62.92 7.78 62.68 7.45L62.68 7.45L62.68 7.45Q62.48 7.18 62.21 7.07L62.21 7.07L62.21 7.07Q61.94 6.96 61.61 6.96L61.61 6.96L61.61 6.96Q61.29 6.96 60.95 7.06L60.95 7.06L60.95 7.06Q60.61 7.15 60.27 7.31L60.27 7.31L60.27 7.31Q59.93 7.48 59.61 7.67L59.61 7.67L59.61 7.67Q59.29 7.87 59.02 8.05L59.02 8.05L59.02 8.05Q58.95 8.12 58.89 8.41L58.89 8.41L58.89 8.41Q58.83 8.69 58.77 9.12L58.77 9.12L58.77 9.12Q58.72 9.55 58.66 10.09L58.66 10.09L58.66 10.09Q58.60 10.64 58.56 11.21L58.56 11.21L58.56 11.21Q58.52 11.76 58.46 12.29L58.46 12.29L58.46 12.29Q58.41 12.82 58.36 13.29L58.36 13.29L58.36 13.29Q58.31 13.76 58.25 14.13L58.25 14.13L58.25 14.13Q58.20 14.50 58.14 14.70L58.14 14.70L58.14 14.70Q58.13 14.77 58.12 14.83L58.12 14.83L58.12 14.83Q58.11 14.90 58.11 14.99L58.11 14.99L58.11 14.99Q58.11 15.22 58.18 15.37L58.18 15.37L58.18 15.37Q58.25 15.51 58.38 15.62L58.38 15.62L58.38 15.62Q58.51 15.72 58.66 15.80L58.66 15.80L58.66 15.80Q58.81 15.88 58.98 15.93L58.98 15.93L58.98 15.93Q59.01 15.95 59.06 15.96L59.06 15.96L59.06 15.96Q59.11 15.97 59.14 15.99L59.14 15.99L59.12 15.99L59.12 15.99Q59.19 16.02 59.25 16.02L59.25 16.02L59.25 16.02Q59.30 16.03 59.35 16.03L59.35 16.03L59.35 16.03Q59.51 16.03 59.58 15.95L59.58 15.95L59.58 15.95Q59.65 15.86 59.70 15.67L59.70 15.67L59.70 15.67Q59.77 15.12 59.84 14.55L59.84 14.55L59.84 14.55Q59.92 13.97 60.03 13.38L60.03 13.38L60.03 13.38Q60.45 13.22 60.89 12.98L60.89 12.98L60.89 12.98Q61.32 12.74 61.70 12.45L61.70 12.45L61.70 12.45Q62.09 12.17 62.42 11.84L62.42 11.84L62.42 11.84Q62.75 11.51 62.99 11.17ZM60.77 9.21L60.77 9.21L60.77 9.21Q61.21 8.97 61.60 8.97L61.60 8.97L61.60 8.97Q61.87 8.97 61.88 9.03L61.88 9.03L61.88 9.03Q61.91 9.10 61.91 9.14L61.91 9.14L61.91 9.14Q61.91 9.18 61.91 9.21L61.91 9.21L61.91 9.21Q61.91 9.39 61.81 9.64L61.81 9.64L61.81 9.64Q61.71 9.88 61.52 10.15L61.52 10.15L61.52 10.15Q61.33 10.42 61.05 10.67L61.05 10.67L61.05 10.67Q60.77 10.92 60.41 11.12L60.41 11.12L60.41 11.12Q60.51 10.60 60.60 10.12L60.60 10.12L60.60 10.12Q60.69 9.65 60.77 9.21ZM66.81 14.91L66.81 14.91L66.81 14.91Q66.84 15.05 66.84 15.09L66.84 15.09L66.84 15.09Q66.86 15.46 66.96 15.60L66.96 15.60L66.96 15.60Q67.06 15.74 67.27 15.85L67.27 15.85L67.27 15.85Q67.47 15.95 67.65 15.96L67.65 15.96L67.65 15.96Q67.83 15.97 68.04 15.97L68.04 15.97L68.04 15.97Q68.32 15.97 68.40 15.87L68.40 15.87L68.40 15.87Q68.47 15.76 68.47 15.48L68.47 15.48L68.47 15.48Q68.43 14.70 68.40 13.84L68.40 13.84L68.40 13.84Q68.36 12.98 68.33 12.12L68.33 12.12L68.33 12.12Q68.31 11.27 68.29 10.46L68.29 10.46L68.29 10.46Q68.28 9.66 68.28 8.99L68.28 8.99L68.28 8.99Q68.28 8.72 68.28 8.49L68.28 8.49L68.28 8.49Q68.29 8.26 68.29 8.05L68.29 8.05L68.29 7.97L68.29 7.97Q68.29 7.71 68.21 7.54L68.21 7.54L68.21 7.54Q68.12 7.36 67.89 7.25L67.89 7.25L67.89 7.25Q67.84 7.22 67.80 7.22L67.80 7.22L67.80 7.22Q67.75 7.21 67.70 7.18L67.70 7.18L67.70 7.18Q67.44 7.08 67.13 6.99L67.13 6.99L67.13 6.99Q66.82 6.90 66.36 6.87L66.36 6.87L66.26 6.87L66.26 6.87Q65.94 6.87 65.78 7.04L65.78 7.04L65.78 7.04Q65.62 7.21 65.52 7.45L65.52 7.45L65.52 7.45Q65.23 8.13 64.89 9.05L64.89 9.05L64.89 9.05Q64.55 9.97 64.23 10.94L64.23 10.94L64.23 10.94Q63.90 11.91 63.60 12.85L63.60 12.85L63.60 12.85Q63.31 13.79 63.10 14.52L63.10 14.52L63.10 14.52Q63.07 14.64 63.06 14.76L63.06 14.76L63.06 14.76Q63.04 14.87 63.04 14.95L63.04 14.95L63.04 14.95Q63.04 15.16 63.11 15.27L63.11 15.27L63.11 15.27Q63.18 15.37 63.29 15.48L63.29 15.48L63.36 15.57L63.36 15.57Q63.43 15.64 63.53 15.69L63.53 15.69L63.53 15.69Q63.62 15.74 63.70 15.79L63.70 15.79L63.70 15.79Q63.77 15.82 63.78 15.83L63.78 15.83L63.78 15.83Q63.80 15.85 63.83 15.86L63.83 15.86L63.83 15.86Q63.91 15.90 63.97 15.93L63.97 15.93L63.97 15.93Q64.04 15.96 64.11 15.96L64.11 15.96L64.11 15.96Q64.32 15.96 64.43 15.62L64.43 15.62L64.43 15.62Q64.46 15.51 64.51 15.41L64.51 15.41L64.51 15.41Q64.55 15.30 64.58 15.19L64.58 15.19L64.58 15.19Q64.65 14.94 64.72 14.69L64.72 14.69L64.72 14.69Q64.79 14.43 64.90 14.15L64.90 14.15L64.90 14.15Q65.18 14.06 65.56 13.98L65.56 13.98L65.56 13.98Q65.93 13.90 66.36 13.80L66.36 13.80L66.36 13.80Q66.44 13.79 66.53 13.78L66.53 13.78L66.53 13.78Q66.63 13.76 66.71 13.73L66.71 13.73L66.71 13.73Q66.74 14.06 66.76 14.36L66.76 14.36L66.76 14.36Q66.78 14.66 66.81 14.91ZM66.56 9.52L66.56 9.52L66.56 9.52Q66.56 10.07 66.57 10.63L66.57 10.63L66.57 10.63Q66.58 11.19 66.61 11.77L66.61 11.77L66.61 11.77Q66.36 11.80 66.13 11.84L66.13 11.84L66.13 11.84Q65.90 11.87 65.67 11.91L65.67 11.91L65.67 11.91Q65.91 11.26 66.13 10.65L66.13 10.65L66.13 10.65Q66.35 10.05 66.56 9.52ZM68.52 13.31L68.53 13.31L68.53 13.31Q68.31 13.44 68.31 13.73L68.31 13.73L68.31 13.73Q68.31 14 68.66 14.43L68.66 14.43L68.66 14.43Q69.23 15.29 69.80 15.64L69.80 15.64L69.80 15.64Q70.38 16.00 70.99 16.00L70.99 16.00L71.06 16.00L71.06 16.00Q71.55 15.99 71.90 15.82L71.90 15.82L71.90 15.82Q72.24 15.65 72.47 15.40L72.47 15.40L72.47 15.40Q72.70 15.15 72.84 14.87L72.84 14.87L72.84 14.87Q72.98 14.59 73.05 14.34L73.05 14.34L73.05 14.34Q73.12 14.10 73.12 13.87L73.12 13.87L73.12 13.87Q73.12 13.33 72.77 12.90L72.77 12.90L72.77 12.90Q72.41 12.47 71.93 12.05L71.93 12.05L71.93 12.05Q71.69 11.83 71.46 11.60L71.46 11.60L71.46 11.60Q71.23 11.37 71.04 11.13L71.04 11.13L71.04 11.13Q70.84 10.88 70.84 10.49L70.84 10.49L70.84 10.49Q70.84 10.22 70.92 9.94L70.92 9.94L70.92 9.94Q71.01 9.66 71.13 9.42L71.13 9.42L71.13 9.42Q71.26 9.18 71.40 9.00L71.40 9.00L71.40 9.00Q71.54 8.81 71.65 8.72L71.65 8.72L71.68 8.69L71.68 8.72L71.68 8.72Q71.68 8.86 71.65 9.06L71.65 9.06L71.65 9.06Q71.62 9.25 71.60 9.46L71.60 9.46L71.60 9.46Q71.57 9.65 71.54 9.81L71.54 9.81L71.54 9.81Q71.51 9.98 71.50 10.18L71.50 10.18L71.50 10.28L71.50 10.28Q71.50 10.71 71.74 11.03L71.74 11.03L71.74 11.03Q71.99 11.34 72.46 11.59L72.46 11.59L72.46 11.59Q72.56 11.66 72.72 11.66L72.72 11.66L72.72 11.66Q72.95 11.66 73.09 11.31L73.09 11.31L73.09 11.31Q73.16 11.09 73.23 10.79L73.23 10.79L73.23 10.79Q73.29 10.49 73.34 10.16L73.34 10.16L73.34 10.16Q73.39 9.83 73.43 9.51L73.43 9.51L73.43 9.51Q73.47 9.20 73.49 8.96L73.49 8.96L73.49 8.96Q73.47 8.67 73.41 8.30L73.41 8.30L73.41 8.30Q73.35 7.94 73.07 7.59L73.07 7.59L73.07 7.59Q72.84 7.34 72.53 7.12L72.53 7.12L72.53 7.12Q72.23 6.90 71.90 6.75L71.90 6.75L71.90 6.75Q71.76 6.68 71.64 6.66L71.64 6.66L71.64 6.66Q71.51 6.65 71.40 6.65L71.40 6.65L71.40 6.65Q71.12 6.65 70.90 6.75L70.90 6.75L70.90 6.75Q70.69 6.85 70.57 6.96L70.57 6.96L70.57 6.96Q70.32 7.17 70.07 7.46L70.07 7.46L70.07 7.46Q69.82 7.76 69.61 8.11L69.61 8.11L69.61 8.11Q69.40 8.46 69.24 8.82L69.24 8.82L69.24 8.82Q69.09 9.18 69.02 9.53L69.02 9.53L69.02 9.52L69.02 9.52Q68.92 9.90 68.92 10.35L68.92 10.35L68.92 10.35Q68.92 10.89 69.10 11.35L69.10 11.35L69.10 11.35Q69.29 11.82 69.57 12.17L69.57 12.17L69.57 12.17Q69.78 12.42 70.02 12.65L70.02 12.65L70.02 12.65Q70.27 12.88 70.50 13.10L70.50 13.10L70.50 13.10Q70.83 13.40 71.07 13.64L71.07 13.64L71.07 13.64Q71.32 13.89 71.32 14.03L71.32 14.03L71.29 14.06L71.29 14.06Q71.18 14.17 71.06 14.17L71.06 14.17L71.06 14.17Q70.57 14.17 69.78 13.41L69.78 13.41L69.78 13.41Q69.64 13.27 69.46 13.21L69.46 13.21L69.46 13.21Q69.29 13.15 69.09 13.15L69.09 13.15L69.09 13.15Q68.94 13.15 68.79 13.18L68.79 13.18L68.79 13.18Q68.64 13.22 68.52 13.31L68.52 13.31ZM73.01 13.31L73.02 13.31L73.02 13.31Q72.80 13.44 72.80 13.73L72.80 13.73L72.80 13.73Q72.80 14 73.15 14.43L73.15 14.43L73.15 14.43Q73.72 15.29 74.30 15.64L74.30 15.64L74.30 15.64Q74.87 16.00 75.49 16.00L75.49 16.00L75.56 16.00L75.56 16.00Q76.05 15.99 76.39 15.82L76.39 15.82L76.39 15.82Q76.73 15.65 76.97 15.40L76.97 15.40L76.97 15.40Q77.20 15.15 77.34 14.87L77.34 14.87L77.34 14.87Q77.48 14.59 77.55 14.34L77.55 14.34L77.55 14.34Q77.62 14.10 77.62 13.87L77.62 13.87L77.62 13.87Q77.62 13.33 77.26 12.90L77.26 12.90L77.26 12.90Q76.90 12.47 76.43 12.05L76.43 12.05L76.43 12.05Q76.19 11.83 75.96 11.60L75.96 11.60L75.96 11.60Q75.73 11.37 75.53 11.13L75.53 11.13L75.53 11.13Q75.33 10.88 75.33 10.49L75.33 10.49L75.33 10.49Q75.33 10.22 75.42 9.94L75.42 9.94L75.42 9.94Q75.50 9.66 75.63 9.42L75.63 9.42L75.63 9.42Q75.75 9.18 75.89 9.00L75.89 9.00L75.89 9.00Q76.03 8.81 76.15 8.72L76.15 8.72L76.17 8.69L76.17 8.72L76.17 8.72Q76.17 8.86 76.15 9.06L76.15 9.06L76.15 9.06Q76.12 9.25 76.09 9.46L76.09 9.46L76.09 9.46Q76.06 9.65 76.03 9.81L76.03 9.81L76.03 9.81Q76.01 9.98 75.99 10.18L75.99 10.18L75.99 10.28L75.99 10.28Q75.99 10.71 76.24 11.03L76.24 11.03L76.24 11.03Q76.48 11.34 76.96 11.59L76.96 11.59L76.96 11.59Q77.06 11.66 77.21 11.66L77.21 11.66L77.21 11.66Q77.45 11.66 77.59 11.31L77.59 11.31L77.59 11.31Q77.66 11.09 77.72 10.79L77.72 10.79L77.72 10.79Q77.78 10.49 77.83 10.16L77.83 10.16L77.83 10.16Q77.88 9.83 77.92 9.51L77.92 9.51L77.92 9.51Q77.97 9.20 77.98 8.96L77.98 8.96L77.98 8.96Q77.97 8.67 77.90 8.30L77.90 8.30L77.90 8.30Q77.84 7.94 77.56 7.59L77.56 7.59L77.56 7.59Q77.34 7.34 77.03 7.12L77.03 7.12L77.03 7.12Q76.72 6.90 76.40 6.75L76.40 6.75L76.40 6.75Q76.26 6.68 76.13 6.66L76.13 6.66L76.13 6.66Q76.01 6.65 75.89 6.65L75.89 6.65L75.89 6.65Q75.61 6.65 75.40 6.75L75.40 6.75L75.40 6.75Q75.18 6.85 75.07 6.96L75.07 6.96L75.07 6.96Q74.82 7.17 74.56 7.46L74.56 7.46L74.56 7.46Q74.31 7.76 74.10 8.11L74.10 8.11L74.10 8.11Q73.89 8.46 73.74 8.82L73.74 8.82L73.74 8.82Q73.58 9.18 73.51 9.53L73.51 9.53L73.51 9.52L73.51 9.52Q73.42 9.90 73.42 10.35L73.42 10.35L73.42 10.35Q73.42 10.89 73.60 11.35L73.60 11.35L73.60 11.35Q73.78 11.82 74.06 12.17L74.06 12.17L74.06 12.17Q74.27 12.42 74.52 12.65L74.52 12.65L74.52 12.65Q74.76 12.88 75.00 13.10L75.00 13.10L75.00 13.10Q75.32 13.40 75.56 13.64L75.56 13.64L75.56 13.64Q75.81 13.89 75.81 14.03L75.81 14.03L75.78 14.06L75.78 14.06Q75.67 14.17 75.56 14.17L75.56 14.17L75.56 14.17Q75.07 14.17 74.27 13.41L74.27 13.41L74.27 13.41Q74.13 13.27 73.95 13.21L73.95 13.21L73.95 13.21Q73.78 13.15 73.58 13.15L73.58 13.15L73.58 13.15Q73.43 13.15 73.28 13.18L73.28 13.18L73.28 13.18Q73.14 13.22 73.01 13.31L73.01 13.31Z"></path></g><defs data-v-423bf9ae=""><linearGradient data-v-423bf9ae="" gradientTransform="rotate(25)" id="2b108c1a-889c-4856-9e10-5ac5c012f677" x1="0%" y1="0%" x2="100%" y2="0%"><stop data-v-423bf9ae="" offset="0%" style="stop-color: rgb(102, 108, 53); stop-opacity: 1;"></stop><stop data-v-423bf9ae="" offset="100%" style="stop-color: rgb(119, 214, 54); stop-opacity: 1;"></stop></linearGradient></defs><g data-v-423bf9ae="" id="3f9ab0c7-1921-4aba-9a8a-d712361788e7" transform="matrix(3.10317192769609,0,0,3.10317192769609,-9.514745441459468,-29.647714135632853)" stroke="none" fill="url(#2b108c1a-889c-4856-9e10-5ac5c012f677)"><path d="M24 37.64A13.64 13.64 0 1 1 37.64 24 13.65 13.65 0 0 1 24 37.64zm0-25.27A11.64 11.64 0 1 0 35.64 24 11.65 11.65 0 0 0 24 12.36zM7 37.82a1 1 0 0 1-1-1v-24a1 1 0 0 1 2 0v24a1 1 0 0 1-1 1z"></path><path d="M7.75 19.74h-1.5a3.18 3.18 0 0 1-3.18-3.18v-3.74a.93.93 0 0 1 1.85 0v3.75a1.33 1.33 0 0 0 1.32 1.32h1.5a1.33 1.33 0 0 0 1.32-1.32v-3.75a.93.93 0 0 1 1.85 0v3.75a3.18 3.18 0 0 1-3.16 3.17zM44 38.82a1 1 0 0 1-1-1v-9h-2a1 1 0 0 1-1-1v-8c0-8.48 3.31-9.82 3.68-9.95a1 1 0 0 1 1.32.95v27a1 1 0 0 1-1 1zm-2-12h1V13.53a15.81 15.81 0 0 0-1 6.29zM23.91 33.18a1 1 0 0 1 0-2 7.09 7.09 0 1 0-7.09-7.09 1 1 0 1 1-2 0 9.09 9.09 0 1 1 9.09 9.09z"></path></g><!----><g data-v-423bf9ae="" id="c0ef97c4-c2db-4037-8371-e1da29e062e6" fill="#213210" transform="matrix(1.8072762127086741,0,0,1.8072762127086741,147.8388493153552,55.57217350206725)"><path d="M1.26 2.80L1.26 12.60L5.74 12.60L5.74 12.19L1.68 12.19L1.68 2.80ZM14.70 7.48L19.04 7.48L19.04 7.08L14.70 7.08L14.70 3.21L19.32 3.21L19.32 2.80L14.28 2.80L14.28 12.60L19.32 12.60L19.32 12.19L14.70 12.19ZM31.92 2.45L27.65 12.60L28.14 12.60L29.41 9.52L34.43 9.52L35.70 12.60L36.19 12.60ZM31.92 3.50L34.23 9.07L29.61 9.07ZM45.08 2.80ZM44.66 2.80L44.66 12.60L45.08 12.60L45.08 8.48L46.63 8.48L49.76 12.60L50.30 12.60L47.11 8.47C48.01 8.41 48.72 8.15 49.26 7.67C49.80 7.20 50.06 6.52 50.06 5.64C50.06 4.71 49.76 4.00 49.15 3.52C48.55 3.04 47.75 2.80 46.76 2.80ZM45.08 3.21L46.76 3.21C47.63 3.21 48.32 3.41 48.85 3.83C49.37 4.24 49.63 4.85 49.63 5.64C49.63 6.44 49.37 7.04 48.85 7.45C48.32 7.87 47.63 8.08 46.76 8.08L45.08 8.08ZM65.63 2.80L65.63 11.79L58.14 2.45L58.14 12.60L58.56 12.60L58.56 3.61L66.05 12.95L66.05 2.80ZM86.11 7.70C86.11 6.33 86.49 5.22 87.25 4.38C88.02 3.53 89.02 3.11 90.27 3.11C91.47 3.11 92.52 3.54 93.42 4.41L93.42 3.81C92.57 3.06 91.52 2.69 90.27 2.69C88.92 2.69 87.81 3.16 86.95 4.09C86.08 5.03 85.65 6.23 85.65 7.70C85.65 9.17 86.08 10.37 86.95 11.30C87.81 12.24 88.92 12.71 90.27 12.71C91.52 12.71 92.57 12.34 93.42 11.59L93.42 11.03C92.55 11.87 91.50 12.29 90.27 12.29C89.02 12.29 88.02 11.87 87.25 11.03C86.49 10.18 86.11 9.07 86.11 7.70ZM102.66 7.70C102.66 6.38 103.07 5.29 103.88 4.41C104.69 3.53 105.72 3.09 106.96 3.09C108.20 3.09 109.23 3.53 110.04 4.41C110.85 5.29 111.26 6.38 111.26 7.70C111.26 9.02 110.85 10.11 110.04 10.99C109.23 11.87 108.20 12.31 106.96 12.31C105.72 12.31 104.69 11.87 103.88 10.99C103.07 10.11 102.66 9.02 102.66 7.70ZM102.24 7.70C102.24 9.16 102.69 10.36 103.58 11.30C104.47 12.24 105.60 12.71 106.96 12.71C108.32 12.71 109.45 12.24 110.34 11.30C111.23 10.36 111.68 9.16 111.68 7.70C111.68 6.24 111.23 5.04 110.34 4.10C109.45 3.16 108.32 2.69 106.96 2.69C105.60 2.69 104.47 3.16 103.58 4.10C102.69 5.04 102.24 6.24 102.24 7.70ZM120.50 7.70C120.50 6.38 120.90 5.29 121.72 4.41C122.53 3.53 123.55 3.09 124.80 3.09C126.04 3.09 127.06 3.53 127.88 4.41C128.69 5.29 129.09 6.38 129.09 7.70C129.09 9.02 128.69 10.11 127.88 10.99C127.06 11.87 126.04 12.31 124.80 12.31C123.55 12.31 122.53 11.87 121.72 10.99C120.90 10.11 120.50 9.02 120.50 7.70ZM120.08 7.70C120.08 9.16 120.52 10.36 121.42 11.30C122.31 12.24 123.43 12.71 124.80 12.71C126.16 12.71 127.29 12.24 128.18 11.30C129.07 10.36 129.51 9.16 129.51 7.70C129.51 6.24 129.07 5.04 128.18 4.10C127.29 3.16 126.16 2.69 124.80 2.69C123.43 2.69 122.31 3.16 121.42 4.10C120.52 5.04 120.08 6.24 120.08 7.70ZM138.40 2.80L138.40 12.60L138.82 12.60L138.82 7.56L143.26 12.60L143.85 12.60L139.26 7.39L143.64 2.80L143.07 2.80L138.82 7.24L138.82 2.80ZM152.25 2.80L152.25 12.60L152.67 12.60L152.67 2.80ZM169.05 2.80L169.05 11.79L161.56 2.45L161.56 12.60L161.98 12.60L161.98 3.61L169.47 12.95L169.47 2.80ZM187.11 7.63L183.05 7.63L183.05 8.11L186.63 8.11C186.55 9.32 186.15 10.32 185.44 11.09C184.73 11.87 183.80 12.26 182.63 12.26C181.34 12.26 180.30 11.82 179.51 10.94C178.71 10.06 178.32 8.98 178.32 7.70C178.32 6.40 178.72 5.32 179.53 4.45C180.34 3.57 181.37 3.14 182.63 3.14C183.38 3.14 184.07 3.31 184.71 3.65C185.35 4.00 185.86 4.47 186.24 5.05L186.63 4.75C186.20 4.11 185.64 3.61 184.95 3.24C184.27 2.87 183.50 2.69 182.63 2.69C181.28 2.69 180.15 3.17 179.24 4.13C178.33 5.09 177.87 6.28 177.87 7.70C177.87 9.12 178.33 10.31 179.24 11.27C180.15 12.23 181.28 12.71 182.63 12.71C184.00 12.71 185.09 12.22 185.90 11.23C186.71 10.25 187.11 9.05 187.11 7.63Z"></path></g></svg>